<svg version="1.0" viewBox="0 0 1280 1207"><path d="M289.7 5.7c-.9 3.2-7.9 30-15.7 59.5-25.2 96.7-42 161.1-44.5 170.3-1.3 4.9-9.2 35.1-17.5 67s-16 61.1-17 65c-1 3.8-7.3 27.9-14 53.5s-13 49.6-14 53.5c-1 3.8-8.7 33.1-17 65s-16.2 62-17.5 67c-1.3 4.9-8.7 33.2-16.5 62.7-36.3 139.2-42.3 162-45 172.3-1.6 6-9.3 35.3-17 65-7.8 29.7-22 83.9-31.5 120.5-9.6 36.6-18.5 70.8-19.9 76-1.9 6.9-2.6 12-2.6 18.7 0 5.1.2 9.3.5 9.3s23.1 2.7 50.8 6c27.6 3.3 90.2 10.7 139.2 16.5 49 5.7 93.2 11 98.3 11.6 5.1.6 9.4 1 9.6.8.2-.2 3.8-18 7.9-39.4 19.8-101.7 48.1-247.2 55.7-286 17.9-92 22-113.2 22-114.7 0-3.4 1.5-1.7 5.3 6 8.8 18 150.3 299.2 153.2 304.7 1.8 3.3 21.8 43 44.5 88.3l41.2 82.3 11-.3 11.1-.3 124.9-241c68.7-132.6 125.2-241.3 125.6-241.7.4-.4 2.6 9 4.9 21 2.3 11.9 9.1 47.1 15.2 78.2s12.9 65.9 15.1 77.5c2.2 11.5 7.4 38.2 11.5 59.3 4.1 21 10.9 55.4 15 76.5 4.1 21 9.2 47.4 11.4 58.7 2.2 11.3 6.2 31.7 8.8 45.4 2.6 13.7 5.3 25 5.9 25.3.9.3 241.7-28.5 281.4-33.7 4.1-.5 8.1-1 8.8-1 .9 0 1.2-2.5 1.2-9 0-8.6-5.8-32.3-139.1-565.5L1001.7-.1l-12.5.3-12.5.3-168.6 331-168.6 330.9-12.6-25.9c-7-14.3-32.6-66.7-56.9-116.5-24.4-49.8-48.7-99.5-54-110.5-9.2-18.9-40.2-82.4-140.6-287.8-24.1-49-47.2-96.5-51.5-105.5L316.1 0h-24.8l-1.6 5.7z"/></svg>